<!DOCTYPE svg PUBLIC "-//W3C//DTD SVG 1.1//EN" "http://www.w3.org/Graphics/SVG/1.1/DTD/svg11.dtd">
<!-- Uploaded to: SVG Repo, www.svgrepo.com, Transformed by: SVG Repo Mixer Tools -->
<svg height="800px" width="800px" version="1.1" id="Layer_1" xmlns="http://www.w3.org/2000/svg" xmlns:xlink="http://www.w3.org/1999/xlink" viewBox="0 0 512 512" xml:space="preserve" fill="#000000">
<g id="SVGRepo_bgCarrier" stroke-width="0"/>
<g id="SVGRepo_tracerCarrier" stroke-linecap="round" stroke-linejoin="round"/>
<g id="SVGRepo_iconCarrier"> <path style="fill:#605552;" d="M258.037,0.011L256,512l153.848-205.903c23.788-31.923,37.854-71.511,37.854-114.394 C447.702,86.5,362.98,1.103,258.037,0.011z"/> <path style="fill:#6a5f5c;" d="M413.944,191.702c0,42.884-11.59,82.471-31.193,114.395L256,512L102.152,306.097 c-23.788-31.924-37.854-71.511-37.854-114.395C64.298,85.825,150.123,0,256,0c0.686,0,1.362,0,2.037,0.011 C344.334,1.339,413.944,86.657,413.944,191.702z"/> <path style="fill:#000000;" d="M257.598,34.175v315.054c86.275-0.855,155.941-71.05,155.941-157.526 C413.538,105.224,343.873,35.03,257.598,34.175z"/> <path style="fill:#000000;" d="M257.598,34.175c67.629,1.092,122.182,71.196,122.182,157.527s-54.553,156.436-122.182,157.527 c-0.529,0.011-1.069,0.011-1.598,0.011c-87.006,0-157.538-70.532-157.538-157.538S168.994,34.163,256,34.163 C256.529,34.163,257.069,34.163,257.598,34.175z"/> <path style="fill:#ff0000;" d="M316.484,206.337v83.26c0,4.661,3.779,8.44,8.44,8.44s8.44-3.779,8.44-8.44v-64.135L316.484,206.337z "/> <path style="fill:#ff0000;" d="M333.363,116.311v109.152h-22.505c-12.434,0-22.505-10.071-22.505-22.506v-86.646 c0-12.423,10.071-22.506,22.505-22.506C323.291,93.805,333.363,103.888,333.363,116.311z"/> <path style="fill:#ff0000;" d="M212.396,183.832v105.766c0,4.661,3.779,8.44,8.44,8.44c4.661,0,8.44-3.779,8.44-8.44V183.832 H212.396z"/> <g> <path style="fill:#ff0000;" d="M220.835,93.805c-4.661,0-8.44,3.779-8.44,8.44v67.516h16.879v-67.516 C229.275,97.584,225.496,93.805,220.835,93.805z"/> <path style="fill:#ff0000;" d="M254.593,93.805c-4.661,0-8.44,3.779-8.44,8.44v67.516l16.879-16.312v-51.205 C263.033,97.584,259.254,93.805,254.593,93.805z"/> <path style="fill:#ff0000;" d="M187.077,93.805c-4.661,0-8.44,3.779-8.44,8.44v51.205l16.879,16.312v-67.516 C195.516,97.584,191.738,93.805,187.077,93.805z"/> <path style="fill:#ff0000;" d="M263.033,152.887v16.879c0,23.308-18.89,42.198-42.198,42.198s-42.198-18.89-42.198-42.198v-16.879 h42.198H263.033z"/> </g> </g>
</svg>